<?xml version="1.0" standalone="no"?>
<!DOCTYPE svg PUBLIC "-//W3C//DTD SVG 20010904//EN"
 "http://www.w3.org/TR/2001/REC-SVG-20010904/DTD/svg10.dtd">
<svg version="1.0" xmlns="http://www.w3.org/2000/svg"
 width="400.000000pt" height="400.000000pt" viewBox="0 0 400.000000 400.000000"
 preserveAspectRatio="xMidYMid meet">
<metadata>
Created by potrace 1.15, written by Peter Selinger 2001-2017
</metadata>
<g transform="translate(0.000000,400.000000) scale(0.100000,-0.100000)"
fill="#000000" stroke="none">
<path d="M3155 3610 c-194 -31 -324 -151 -416 -383 -29 -73 -89 -314 -89 -358
0 -20 -9 -62 -20 -95 -25 -71 -43 -154 -66 -294 -22 -142 -65 -274 -115 -351
-59 -91 -198 -258 -266 -318 -67 -60 -130 -86 -246 -101 -131 -18 -306 9 -409
61 -20 10 -67 45 -103 78 -140 124 -266 154 -465 112 -140 -29 -166 -49 -230
-181 -23 -46 -53 -98 -66 -115 -70 -92 -84 -212 -40 -348 15 -48 20 -80 15
-90 -5 -9 -31 -23 -58 -32 -108 -35 -223 -123 -330 -250 -84 -99 -91 -112 -91
-172 0 -37 7 -60 29 -95 49 -77 119 -115 288 -158 233 -58 388 -82 563 -87
198 -6 510 11 600 33 36 8 115 17 175 20 137 5 282 32 456 84 327 99 625 112
1069 46 270 -40 331 -38 316 12 -6 17 -35 27 -174 61 -198 48 -668 147 -767
161 -150 21 -289 9 -449 -41 -185 -57 -425 -97 -815 -134 -181 -18 -557 -20
-686 -4 -162 20 -375 104 -375 148 0 42 202 195 318 241 33 13 33 13 86 -43
112 -117 204 -141 546 -140 225 0 268 3 525 37 361 49 664 57 1085 31 347 -21
628 -23 690 -4 135 41 209 228 145 364 -26 54 -103 128 -167 159 -109 53 -355
85 -519 67 -192 -21 -593 -129 -971 -262 -285 -100 -329 -111 -493 -116 -133
-5 -147 -3 -290 30 -218 51 -258 58 -385 71 -113 11 -115 12 -136 44 -30 44
-47 145 -34 210 21 110 95 213 185 258 l54 26 88 -40 c48 -22 139 -63 200 -91
145 -65 257 -98 394 -113 103 -11 120 -10 287 15 236 36 288 60 422 196 199
202 269 381 405 1036 65 314 85 366 171 444 64 59 175 116 258 133 l58 13 28
-32 c43 -48 57 -145 36 -249 -29 -145 -89 -266 -194 -391 -90 -106 -106 -142
-106 -238 -1 -94 19 -141 78 -189 38 -31 39 -31 159 -31 148 1 224 20 274 70
35 35 43 72 17 82 -9 3 -49 -2 -89 -12 -62 -16 -80 -17 -114 -7 -46 14 -131
92 -131 121 0 23 66 123 153 231 77 97 106 161 125 278 13 79 14 112 4 196
-15 131 -43 236 -79 294 -51 83 -180 124 -318 102z m160 -71 c110 -28 175
-181 175 -413 0 -169 -19 -219 -153 -388 -135 -171 -156 -246 -91 -318 20 -21
63 -53 96 -69 33 -17 54 -33 47 -35 -130 -41 -250 37 -249 161 1 52 26 102
109 213 196 263 248 500 151 691 -37 72 -96 80 -235 34 -161 -55 -295 -171
-330 -288 -8 -29 -55 -221 -105 -427 -49 -206 -100 -412 -115 -458 -72 -229
-190 -402 -349 -513 -163 -115 -438 -149 -687 -86 -99 26 -140 42 -378 151
-79 36 -157 66 -173 66 -44 0 -126 -46 -185 -106 -92 -92 -142 -232 -128 -358
20 -167 123 -318 253 -366 29 -11 127 -30 215 -41 222 -29 437 -23 587 14 131
33 271 53 470 68 184 14 347 8 565 -22 302 -40 721 -25 794 29 70 52 91 144
49 217 -58 99 -256 142 -542 116 -279 -26 -483 -75 -931 -226 -170 -57 -355
-113 -410 -125 -147 -31 -341 -37 -501 -16 -234 31 -252 34 -286 50 -37 18
-88 62 -88 76 0 19 137 10 232 -15 126 -33 418 -75 520 -75 104 0 187 18 336
71 551 195 900 294 1132 320 169 20 377 -14 487 -78 51 -29 110 -93 129 -139
46 -110 -16 -223 -142 -260 -65 -19 -233 -15 -619 13 -263 20 -670 22 -850 5
-71 -7 -233 -25 -360 -39 -268 -32 -616 -38 -740 -15 -70 14 -70 14 -162 108
-73 74 -100 111 -132 176 -72 147 -79 278 -18 359 18 24 52 84 77 133 59 119
88 139 225 161 57 9 119 13 145 10 69 -10 145 -49 214 -109 78 -69 164 -110
286 -136 156 -33 291 -26 448 21 106 32 128 47 220 152 220 254 271 354 317
633 31 189 105 534 141 659 69 242 182 372 357 410 78 17 126 18 182 4z m100
-2200 c70 -13 147 -50 169 -81 25 -35 20 -76 -12 -108 -22 -21 -44 -30 -97
-39 -213 -35 -316 -33 -714 10 -139 15 -234 20 -326 16 -185 -6 -192 1 -53 51
335 118 823 190 1033 151z m-2727 -195 c2 -16 -7 -25 -40 -40 -177 -78 -332
-217 -330 -295 1 -44 25 -65 127 -114 163 -79 270 -96 600 -96 420 0 809 48
1247 152 213 50 305 53 527 12 187 -33 175 -39 -99 -46 -183 -5 -203 -8 -330
-41 -74 -20 -184 -49 -245 -65 -145 -38 -282 -61 -369 -61 -39 0 -98 -7 -131
-14 -130 -31 -216 -35 -510 -27 -276 9 -298 11 -460 45 -231 48 -323 78 -383
125 -59 47 -80 88 -61 123 21 40 138 175 202 234 61 55 207 136 237 131 8 -1
16 -12 18 -23z"/>
</g>
</svg>
