<svg height="512" viewBox="0 0 512 512" width="512" xmlns="http://www.w3.org/2000/svg"><g><path d="m416 46.54v-29.54a8 8 0 0 0 -8-8h-304a8 8 0 0 0 -8 8v29.54c-26.54 69.47-40 139.93-40 209.46s13.46 139.99 40 209.46v30.54a8 8 0 0 0 8 8h304a8 8 0 0 0 8-8v-30.54c26.54-69.47 40-139.93 40-209.46s-13.46-139.99-40-209.46zm-304-21.54h288v15h-288zm288 463h-288v-16h288zm2.48-32h-292.96c-24.9-66.43-37.52-133.68-37.52-200 0-65.98 12.5-132.9 37.15-199h293.7c24.65 66.1 37.15 133.02 37.15 199 0 66.32-12.62 133.57-37.52 200z"/><path d="m256 96c-88.22 0-160 71.78-160 160s71.78 160 160 160 160-71.78 160-160-71.78-160-160-160zm0 120c-7.55 0-16-13.69-16-32 0-12.27 9.85-23.56 15.98-29.41 6.14 5.87 16.02 17.22 16.02 29.41 0 18.31-8.45 32-16 32zm8 183.77v-18.39a28.368 28.368 0 0 0 11.34 2.25 38.864 38.864 0 0 0 9.4-1.21c9.94-2.49 20.12-8.57 28.69-17.14 18.25-18.24 13.77-50.69 13.57-52.06a7.987 7.987 0 0 0 -6.76-6.76c-1.38-.2-33.82-4.68-52.07 13.57-1.46 1.47-2.85 2.99-4.17 4.54v-23.19a28.368 28.368 0 0 0 11.34 2.25 38.864 38.864 0 0 0 9.4-1.21c9.94-2.49 20.12-8.57 28.69-17.14 14.3-14.3 14.64-37.32 14.03-47.27v-30.01a8 8 0 0 0 -16 0v17.85c-11.22-.19-30.65 1.55-43.29 14.18-1.46 1.47-2.85 2.99-4.17 4.54v-14.03c13.95-5.2 24-23.78 24-46.54 0-20.69-16.78-37.5-24-43.78v-12.22a8 8 0 0 0 -16 0v12.22c-7.22 6.28-24 23.09-24 43.78 0 22.76 10.05 41.34 24 46.54v13.5q-1.77-2.055-3.72-4.01c-12.63-12.63-32.06-14.37-43.28-14.18v-17.85a8 8 0 0 0 -16 0v30.01c-.62 9.95-.27 32.97 14.03 47.27 8.56 8.57 18.75 14.65 28.69 17.14a38.864 38.864 0 0 0 9.4 1.21 28.643 28.643 0 0 0 10.88-2.05v22.46q-1.77-2.055-3.72-4.01c-18.24-18.25-50.68-13.77-52.06-13.57a7.976 7.976 0 0 0 -6.76 6.76c-.2 1.37-4.68 33.82 13.57 52.06 8.56 8.57 18.75 14.65 28.69 17.14a38.864 38.864 0 0 0 9.4 1.21 28.643 28.643 0 0 0 10.88-2.05v18.19c-75.7-4.16-136-67.05-136-143.77 0-79.4 64.6-144 144-144s144 64.6 144 144c0 76.72-60.3 139.61-136 143.77zm2.56-47.17c1.77-7.06 6.48-14.81 12.93-21.26 6.31-6.31 16.11-8.47 23.23-9.17a72.8 72.8 0 0 1 8.89-.32 72.928 72.928 0 0 1 -.32 8.89c-.7 7.11-2.87 16.92-9.17 23.23-6.45 6.45-14.2 11.16-21.26 12.93-5.63 1.4-10.25.82-12.69-1.62s-3.01-7.05-1.61-12.68zm0-80c1.77-7.06 6.48-14.81 12.93-21.26 6.31-6.31 16.11-8.47 23.23-9.17a72.8 72.8 0 0 1 8.89-.32 72.928 72.928 0 0 1 -.32 8.89c-.7 7.11-2.87 16.92-9.17 23.23-6.45 6.45-14.2 11.16-21.26 12.93-5.63 1.4-10.25.82-12.69-1.62s-3.01-7.05-1.61-12.68zm-22.28 12.68c-2.43 2.44-7.05 3.02-12.68 1.62-7.06-1.77-14.81-6.48-21.26-12.93-6.31-6.31-8.47-16.12-9.17-23.23a72.928 72.928 0 0 1 -.32-8.89 72.864 72.864 0 0 1 8.89.32c7.11.7 16.92 2.86 23.23 9.17 6.45 6.45 11.16 14.2 12.93 21.26 1.4 5.63.82 10.25-1.62 12.68zm0 80c-2.43 2.44-7.05 3.02-12.68 1.62-7.06-1.77-14.81-6.48-21.26-12.93-6.31-6.31-8.47-16.12-9.17-23.23a72.928 72.928 0 0 1 -.32-8.89 72.864 72.864 0 0 1 8.89.32c7.11.7 16.92 2.86 23.23 9.17 6.45 6.45 11.16 14.2 12.93 21.26 1.4 5.63.82 10.25-1.62 12.68z"/></g></svg>