<?xml version="1.0" encoding="utf-8"?>
<!-- Generator: Adobe Illustrator 24.3.0, SVG Export Plug-In . SVG Version: 6.00 Build 0)  -->
<svg version="1.1" id="Layer_1" xmlns="http://www.w3.org/2000/svg" xmlns:xlink="http://www.w3.org/1999/xlink" x="0px" y="0px"
	 viewBox="0 0 500 500" style="enable-background:new 0 0 500 500;" xml:space="preserve">
<g>
	<polygon points="368.9,240.2 430,289.6 430,190.9 	"/>
	<polygon points="124.5,338.9 185.6,289.6 124.5,240.2 	"/>
	<polygon points="185.6,388.3 246.7,338.9 185.6,289.6 	"/>
	<polygon points="124.5,141.5 124.5,240.2 185.6,190.9 	"/>
	<polygon points="185.6,92.2 185.6,190.9 246.7,141.5 	"/>
	<polygon points="63.4,289.6 124.5,240.2 63.4,190.9 	"/>
	<polygon points="164.5,240.2 246.7,306.6 328.9,240.2 246.7,173.8 	"/>
	<polygon points="307.8,190.9 368.9,240.2 368.9,141.5 	"/>
	<polygon points="307.8,92.2 246.7,141.5 307.8,190.9 	"/>
	<polygon points="368.9,338.9 368.9,240.2 307.8,289.6 	"/>
	<polygon points="307.8,388.3 307.8,289.6 246.7,338.9 	"/>
</g>
</svg>
